<svg width="139" height="71" viewBox="0 0 139 71" fill="none" xmlns="http://www.w3.org/2000/svg">
<g filter="url(#filter0_b_2_48)">
<g filter="url(#filter1_d_2_48)">
<path d="M126.528 35.5189C124.607 35.5189 122.837 35.0496 121.216 34.111C119.596 33.1725 118.306 31.8397 117.345 30.1127C116.385 28.3858 115.905 26.396 115.905 24.1435C115.905 21.6281 116.28 19.2817 117.03 17.1043C117.78 14.8893 118.876 13.1248 120.316 11.8108C121.787 10.4592 123.497 9.78347 125.448 9.78347C127.488 9.78347 129.034 10.6094 130.084 12.2613C131.134 13.8756 131.63 15.9217 131.57 18.3995C131.57 20.6145 130.864 22.3039 129.454 23.4677C128.073 24.6315 126.303 25.2135 124.142 25.2135C123.812 25.2135 123.317 25.1759 122.657 25.1008C121.577 24.9507 120.811 24.7442 120.361 24.4814C119.911 24.2186 119.686 23.693 119.686 22.9046C119.686 22.6418 119.746 22.4541 119.866 22.3414C119.986 22.1913 120.226 22.1162 120.586 22.1162C120.976 22.1162 121.667 22.2288 122.657 22.4541C123.617 22.6793 124.472 22.792 125.223 22.792C127.983 22.792 129.364 21.2903 129.364 18.2869C129.364 16.4848 129.094 15.0582 128.554 14.007C128.043 12.9558 127.128 12.4302 125.808 12.4302C124.367 12.4302 123.077 12.9183 121.937 13.8944C120.796 14.8329 119.911 16.0718 119.281 17.6111C118.681 19.1503 118.381 20.7834 118.381 22.5104C118.381 25.4762 119.041 27.9165 120.361 29.8312C121.682 31.7083 123.722 32.6469 126.483 32.6469C126.813 32.6469 127.368 32.6093 128.149 32.5342C128.479 32.4967 128.884 32.3841 129.364 32.1964C129.844 32.0086 130.189 31.8773 130.399 31.8022C131.69 31.239 132.635 30.9575 133.235 30.9575C133.685 30.9575 134.03 31.1076 134.27 31.408C133.52 32.8346 132.395 33.8858 130.894 34.5615C129.424 35.1998 127.968 35.5189 126.528 35.5189Z" fill="#ADBAFA"/>
</g>
<g filter="url(#filter2_d_2_48)">
<path d="M103.202 63C100.682 63 98.5661 62.099 96.8556 60.2969C95.1751 58.5324 94.1698 55.5478 93.8397 51.343C93.8097 50.7048 93.8847 50.2168 94.0647 49.8789C94.2748 49.541 94.5449 49.3721 94.875 49.3721C95.2351 49.3721 95.5502 49.541 95.8202 49.8789C96.0903 50.2543 96.2104 50.7424 96.1804 51.343C96.1804 53.8208 96.8556 55.7731 98.206 57.1997C99.5864 58.6638 101.342 59.3959 103.473 59.3959C104.703 59.3959 105.783 58.8328 106.713 57.7065C107.674 56.5802 108.409 55.0034 108.919 52.9761C109.429 50.9864 109.684 48.6963 109.684 46.1059C109.684 41.5632 109.729 37.152 109.819 32.8721L109.864 30.0001C108.694 31.5394 107.629 32.6656 106.668 33.3789C105.738 34.0922 104.613 34.4489 103.292 34.4489C100.982 34.4489 99.2713 33.6793 98.1609 32.14C97.0806 30.5632 96.5405 28.1605 96.5405 24.9319C96.5405 23.0923 96.9306 21.1776 97.7108 19.1879C98.521 17.1606 99.6164 15.4712 100.997 14.1196C102.407 12.7681 103.998 12.0923 105.768 12.0923C106.368 12.0923 106.924 12.1674 107.434 12.3176C109.354 12.8432 110.645 15.077 111.305 19.0189C111.965 22.9609 112.295 28.0667 112.295 34.3363C112.295 36.0632 112.265 38.3533 112.205 41.2066L112.16 46.5564C112.16 48.6963 111.89 51.0239 111.35 53.5393C110.81 56.0922 109.864 58.3072 108.514 60.1843C107.164 62.0614 105.393 63 103.202 63ZM102.617 30.7322C104.838 30.7322 106.518 30.0752 107.659 28.7612C108.799 27.4097 109.369 25.4387 109.369 22.8483C109.369 22.5104 109.339 21.9285 109.279 21.1025C109.129 19.3756 108.769 18.024 108.199 17.0479C107.659 16.0343 106.803 15.5275 105.633 15.5275C104.403 15.5275 103.277 16.0718 102.257 17.1606C101.237 18.2493 100.442 19.6008 99.8714 21.2152C99.3013 22.7919 99.0162 24.2749 99.0162 25.6639C99.0162 27.053 99.3463 28.2544 100.006 29.268C100.667 30.2441 101.537 30.7322 102.617 30.7322Z" fill="#ADBAFA"/>
</g>
<g filter="url(#filter3_d_2_48)">
<path d="M82.8997 35.5189C79.7787 35.5189 77.0629 34.8431 74.7523 33.4916C72.4716 32.1025 71.3312 29.681 71.3312 26.2271C71.3312 24.9882 71.6313 23.7868 72.2315 22.623C72.8317 21.4592 73.7169 20.5206 74.8873 19.8073C76.0576 19.0565 77.4831 18.6811 79.1636 18.6811C80.4539 18.6811 81.5493 18.7562 82.4495 18.9063C83.3498 19.0565 84.3851 19.4695 85.5554 20.1452C86.7258 20.821 87.9411 21.891 89.2015 23.3551C88.7214 20.7647 88.0012 18.4933 87.0409 16.5411C86.0806 14.5889 85.0003 13.0872 83.7999 12.036C82.6296 10.9473 81.4742 10.4029 80.3339 10.4029C79.7937 10.4029 79.2836 10.5343 78.8034 10.7971C78.3533 11.0224 77.7981 11.3603 77.138 11.8108C76.3877 12.4115 75.8326 12.7118 75.4725 12.7118C75.3224 12.7118 75.1874 12.6555 75.0673 12.5429C74.9773 12.3927 74.9323 12.2237 74.9323 12.036C74.9323 10.5343 75.4575 9.37052 76.5078 8.54458C77.5881 7.71864 78.8935 7.34322 80.4239 7.41831C82.5245 7.56848 84.4451 8.69475 86.1856 10.7971C87.9261 12.862 89.2915 15.4336 90.2818 18.5121C91.3021 21.5906 91.8123 24.6128 91.8123 27.5786C91.8123 28.0667 91.7823 28.7612 91.7222 29.6623L90.2818 29.5496C89.1415 26.6589 87.6711 24.6128 85.8705 23.4114C84.1 22.1725 82.3145 21.5531 80.5139 21.5531C78.2033 21.5531 76.5528 21.9848 75.5625 22.8483C74.5722 23.7118 74.0771 24.9694 74.0771 26.6213C74.0771 28.3483 74.7673 29.7373 76.1477 30.7885C77.5281 31.8397 79.2986 32.3653 81.4592 32.3653C82.6596 32.3653 83.6199 32.2902 84.3401 32.1401C85.0603 31.9523 85.8105 31.7083 86.5907 31.408C87.2209 31.1452 87.7761 30.9575 88.2562 30.8448C88.7364 30.7322 89.3516 30.6759 90.1018 30.6759C90.942 30.6759 91.4672 30.751 91.6772 30.9012C91.9173 31.0513 92.0373 31.3892 92.0373 31.9148C92.0373 32.2902 91.4222 32.7595 90.1918 33.3226C88.9614 33.8858 87.581 34.3926 86.0506 34.8431C84.5201 35.2936 83.4698 35.5189 82.8997 35.5189Z" fill="#ADBAFA"/>
</g>
<g filter="url(#filter4_d_2_48)">
<path d="M58.6288 63C56.108 63 53.9924 62.099 52.2819 60.2969C50.6014 58.5324 49.5961 55.5478 49.266 51.343C49.236 50.7048 49.311 50.2168 49.4911 49.8789C49.7011 49.541 49.9712 49.3721 50.3013 49.3721C50.6614 49.3721 50.9765 49.541 51.2466 49.8789C51.5167 50.2543 51.6367 50.7424 51.6067 51.343C51.6067 53.8208 52.2819 55.7731 53.6323 57.1997C55.0127 58.6638 56.7682 59.3959 58.8988 59.3959C60.1292 59.3959 61.2095 58.8328 62.1398 57.7065C63.1001 56.5802 63.8353 55.0034 64.3454 52.9761C64.8556 50.9864 65.1107 48.6963 65.1107 46.1059C65.1107 41.5632 65.1557 37.152 65.2457 32.8721L65.2907 30.0001C64.1204 31.5394 63.0551 32.6656 62.0948 33.3789C61.1645 34.0922 60.0392 34.4489 58.7188 34.4489C56.4081 34.4489 54.6976 33.6793 53.5873 32.14C52.507 30.5632 51.9668 28.1605 51.9668 24.9319C51.9668 23.0923 52.3569 21.1776 53.1371 19.1879C53.9474 17.1606 55.0427 15.4712 56.4231 14.1196C57.8335 12.7681 59.424 12.0923 61.1945 12.0923C61.7947 12.0923 62.3498 12.1674 62.86 12.3176C64.7806 12.8432 66.0709 15.077 66.7311 19.0189C67.3913 22.9609 67.7214 28.0667 67.7214 34.3363C67.7214 36.0632 67.6914 38.3533 67.6314 41.2066L67.5864 46.5564C67.5864 48.6963 67.3163 51.0239 66.7762 53.5393C66.236 56.0922 65.2907 58.3072 63.9403 60.1843C62.5899 62.0614 60.8194 63 58.6288 63ZM58.0436 30.7322C60.2642 30.7322 61.9447 30.0752 63.0851 28.7612C64.2254 27.4097 64.7956 25.4387 64.7956 22.8483C64.7956 22.5104 64.7656 21.9285 64.7055 21.1025C64.5555 19.3756 64.1954 18.024 63.6252 17.0479C63.0851 16.0343 62.2298 15.5275 61.0595 15.5275C59.8291 15.5275 58.7038 16.0718 57.6835 17.1606C56.6632 18.2493 55.8679 19.6008 55.2978 21.2152C54.7276 22.7919 54.4425 24.2749 54.4425 25.6639C54.4425 27.053 54.7726 28.2544 55.4328 29.268C56.093 30.2441 56.9633 30.7322 58.0436 30.7322Z" fill="#ADBAFA"/>
</g>
<g filter="url(#filter5_d_2_48)">
<path d="M33.1438 35.7441C32.7237 35.8943 32.4836 35.9694 32.4236 35.9694C32.1836 35.9694 31.9285 35.8192 31.6584 35.5189C30.6681 33.6793 29.9479 30.4694 29.4978 25.8892C29.0776 21.309 28.8676 17.3671 28.8676 14.0633C28.8676 13.5377 29.1677 13.2749 29.7678 13.2749C30.6681 13.2749 31.1182 13.8944 31.1182 15.1333C31.1182 15.4712 31.1032 15.7527 31.0732 15.978C31.3433 15.1896 31.8535 14.3824 32.6037 13.5565C33.3539 12.7306 34.2242 12.036 35.2145 11.4729C36.2047 10.9098 37.21 10.6282 38.2303 10.6282C41.4413 10.6282 43.782 12.4115 45.2524 15.978C46.7228 19.507 47.4581 23.8995 47.4581 29.1554C47.4581 30.9575 47.308 32.4029 47.0079 33.4916C46.7078 34.5428 46.3027 35.0684 45.7926 35.0684C45.2524 35.0684 44.9823 34.8619 44.9823 34.4489C45.1924 32.4592 45.2974 30.507 45.2974 28.5923C45.2974 23.7493 44.6222 20.0889 43.2718 17.6111C41.9214 15.0957 40.1359 13.8381 37.9152 13.8381C36.8349 13.8381 35.7846 14.176 34.7643 14.8517C33.774 15.5275 32.9638 16.466 32.3336 17.6674C31.7334 18.8688 31.4333 20.2391 31.4333 21.7783C31.4333 23.5053 31.5084 25.007 31.6584 26.2834C31.8084 27.5599 32.0485 29.0991 32.3786 30.9012C32.7387 32.6657 32.9938 34.28 33.1438 35.7441Z" fill="#ADBAFA"/>
</g>
<g filter="url(#filter6_d_2_48)">
<path d="M11.3824 35.5752C8.89167 35.5752 7.07614 34.9933 5.9358 33.8295C4.82547 32.6656 4.27031 30.5632 4.27031 27.5223L4.90049 14.908V2.80055C4.90049 1.86199 5.05054 1.26131 5.35063 0.998508C5.65072 0.698167 6.31091 0.547997 7.33121 0.547997L10.3921 0.660625C14.2332 0.923421 17.9843 1.05482 21.6454 1.05482C22.4257 1.05482 23.0408 1.33639 23.491 1.89953C23.9711 2.46267 24.2112 3.23229 24.2112 4.20839C24.2112 4.39611 24.1662 4.54628 24.0761 4.65891C23.9861 4.77153 23.8811 4.80908 23.761 4.77153L21.6454 3.75789L7.55628 4.20839C7.37622 4.20839 7.27119 4.18962 7.24118 4.15208C7.36122 4.45242 7.42124 4.71522 7.42124 4.94047V14.908C8.80164 15.0206 10.137 15.077 11.4274 15.077C13.6481 15.077 16.0938 14.9456 18.7646 14.6828C19.0347 14.6452 19.4398 14.6077 19.9799 14.5701C20.5501 14.495 20.8652 14.495 20.9252 14.5701C21.1053 14.7954 21.2403 15.0019 21.3303 15.1896C21.4204 15.3773 21.4804 15.6401 21.5104 15.978C21.6004 16.8039 20.5951 17.3483 18.4945 17.6111C16.4239 17.8739 13.6481 18.0804 10.167 18.2305C8.9967 18.2305 8.02141 18.2681 7.24118 18.3432C6.88108 19.4694 6.70103 21.2715 6.70103 23.7493L6.74604 27.0718V30.7322C7.22618 31.2202 7.75133 31.5394 8.3215 31.6895C8.89167 31.8397 9.82194 31.9148 11.1123 31.9148C12.4627 31.9148 13.7831 31.8209 15.0735 31.6332C16.3939 31.4455 17.1741 31.3329 17.4142 31.2953C19.9349 30.9199 21.8105 30.7322 23.0408 30.7322C23.761 30.7322 24.2562 30.826 24.5263 31.0138C24.8264 31.1639 24.9764 31.4455 24.9764 31.8585C24.9764 34.3363 20.9552 35.5752 12.9129 35.5752H11.3824Z" fill="#ADBAFA"/>
</g>
</g>
<defs>
<filter id="filter0_b_2_48" x="0.270309" y="-3.452" width="138" height="70.452" filterUnits="userSpaceOnUse" color-interpolation-filters="sRGB">
<feFlood flood-opacity="0" result="BackgroundImageFix"/>
<feGaussianBlur in="BackgroundImageFix" stdDeviation="2"/>
<feComposite in2="SourceAlpha" operator="in" result="effect1_backgroundBlur_2_48"/>
<feBlend mode="normal" in="SourceGraphic" in2="effect1_backgroundBlur_2_48" result="shape"/>
</filter>
<filter id="filter1_d_2_48" x="111.905" y="9.78347" width="26.3654" height="33.7354" filterUnits="userSpaceOnUse" color-interpolation-filters="sRGB">
<feFlood flood-opacity="0" result="BackgroundImageFix"/>
<feColorMatrix in="SourceAlpha" type="matrix" values="0 0 0 0 0 0 0 0 0 0 0 0 0 0 0 0 0 0 127 0" result="hardAlpha"/>
<feOffset dy="4"/>
<feGaussianBlur stdDeviation="2"/>
<feComposite in2="hardAlpha" operator="out"/>
<feColorMatrix type="matrix" values="0 0 0 0 0 0 0 0 0 0 0 0 0 0 0 0 0 0 0.25 0"/>
<feBlend mode="normal" in2="BackgroundImageFix" result="effect1_dropShadow_2_48"/>
<feBlend mode="normal" in="SourceGraphic" in2="effect1_dropShadow_2_48" result="shape"/>
</filter>
<filter id="filter2_d_2_48" x="89.8332" y="12.0923" width="26.4619" height="58.9077" filterUnits="userSpaceOnUse" color-interpolation-filters="sRGB">
<feFlood flood-opacity="0" result="BackgroundImageFix"/>
<feColorMatrix in="SourceAlpha" type="matrix" values="0 0 0 0 0 0 0 0 0 0 0 0 0 0 0 0 0 0 127 0" result="hardAlpha"/>
<feOffset dy="4"/>
<feGaussianBlur stdDeviation="2"/>
<feComposite in2="hardAlpha" operator="out"/>
<feColorMatrix type="matrix" values="0 0 0 0 0 0 0 0 0 0 0 0 0 0 0 0 0 0 0.25 0"/>
<feBlend mode="normal" in2="BackgroundImageFix" result="effect1_dropShadow_2_48"/>
<feBlend mode="normal" in="SourceGraphic" in2="effect1_dropShadow_2_48" result="shape"/>
</filter>
<filter id="filter3_d_2_48" x="67.3312" y="7.40892" width="28.7061" height="36.11" filterUnits="userSpaceOnUse" color-interpolation-filters="sRGB">
<feFlood flood-opacity="0" result="BackgroundImageFix"/>
<feColorMatrix in="SourceAlpha" type="matrix" values="0 0 0 0 0 0 0 0 0 0 0 0 0 0 0 0 0 0 127 0" result="hardAlpha"/>
<feOffset dy="4"/>
<feGaussianBlur stdDeviation="2"/>
<feComposite in2="hardAlpha" operator="out"/>
<feColorMatrix type="matrix" values="0 0 0 0 0 0 0 0 0 0 0 0 0 0 0 0 0 0 0.25 0"/>
<feBlend mode="normal" in2="BackgroundImageFix" result="effect1_dropShadow_2_48"/>
<feBlend mode="normal" in="SourceGraphic" in2="effect1_dropShadow_2_48" result="shape"/>
</filter>
<filter id="filter4_d_2_48" x="45.2596" y="12.0923" width="26.4619" height="58.9077" filterUnits="userSpaceOnUse" color-interpolation-filters="sRGB">
<feFlood flood-opacity="0" result="BackgroundImageFix"/>
<feColorMatrix in="SourceAlpha" type="matrix" values="0 0 0 0 0 0 0 0 0 0 0 0 0 0 0 0 0 0 127 0" result="hardAlpha"/>
<feOffset dy="4"/>
<feGaussianBlur stdDeviation="2"/>
<feComposite in2="hardAlpha" operator="out"/>
<feColorMatrix type="matrix" values="0 0 0 0 0 0 0 0 0 0 0 0 0 0 0 0 0 0 0.25 0"/>
<feBlend mode="normal" in2="BackgroundImageFix" result="effect1_dropShadow_2_48"/>
<feBlend mode="normal" in="SourceGraphic" in2="effect1_dropShadow_2_48" result="shape"/>
</filter>
<filter id="filter5_d_2_48" x="24.8676" y="10.6282" width="26.5905" height="33.3412" filterUnits="userSpaceOnUse" color-interpolation-filters="sRGB">
<feFlood flood-opacity="0" result="BackgroundImageFix"/>
<feColorMatrix in="SourceAlpha" type="matrix" values="0 0 0 0 0 0 0 0 0 0 0 0 0 0 0 0 0 0 127 0" result="hardAlpha"/>
<feOffset dy="4"/>
<feGaussianBlur stdDeviation="2"/>
<feComposite in2="hardAlpha" operator="out"/>
<feColorMatrix type="matrix" values="0 0 0 0 0 0 0 0 0 0 0 0 0 0 0 0 0 0 0.25 0"/>
<feBlend mode="normal" in2="BackgroundImageFix" result="effect1_dropShadow_2_48"/>
<feBlend mode="normal" in="SourceGraphic" in2="effect1_dropShadow_2_48" result="shape"/>
</filter>
<filter id="filter6_d_2_48" x="0.270309" y="0.547997" width="28.7061" height="43.0272" filterUnits="userSpaceOnUse" color-interpolation-filters="sRGB">
<feFlood flood-opacity="0" result="BackgroundImageFix"/>
<feColorMatrix in="SourceAlpha" type="matrix" values="0 0 0 0 0 0 0 0 0 0 0 0 0 0 0 0 0 0 127 0" result="hardAlpha"/>
<feOffset dy="4"/>
<feGaussianBlur stdDeviation="2"/>
<feComposite in2="hardAlpha" operator="out"/>
<feColorMatrix type="matrix" values="0 0 0 0 0 0 0 0 0 0 0 0 0 0 0 0 0 0 0.25 0"/>
<feBlend mode="normal" in2="BackgroundImageFix" result="effect1_dropShadow_2_48"/>
<feBlend mode="normal" in="SourceGraphic" in2="effect1_dropShadow_2_48" result="shape"/>
</filter>
</defs>
</svg>
